<?xml version="1.0" ?><!DOCTYPE svg  PUBLIC '-//W3C//DTD SVG 1.1//EN'  'http://www.w3.org/Graphics/SVG/1.1/DTD/svg11.dtd'><svg height="512px" style="enable-background:new 0 0 512 512;" version="1.1" viewBox="0 0 512 512" width="512px" xml:space="preserve" xmlns="http://www.w3.org/2000/svg" xmlns:xlink="http://www.w3.org/1999/xlink"><g id="_x31_60_x2C__Security_x2C__cyber_x2C__lock_x2C__protection_x2C__secure_x2C_"><g><path d="M200.3,137.832h127.317v-21.328c0-17.494-7.172-33.412-18.7-44.942    c-11.561-11.528-27.479-18.731-44.975-18.731c-17.463,0-33.412,7.172-44.942,18.701c-11.528,11.561-18.7,27.479-18.7,44.973    V137.832z M142.189,252.414v-21.143h-30.322h-0.123H99.689v21.143H142.189z M142.189,281.16v-21.142h-42.5v21.142H142.189z     M142.189,309.938v-21.174h-42.5v21.174H142.189z M99.689,346.287v21.143h42.5v-21.143H99.689z M277.637,262.059    c-3.494-3.493-8.315-5.656-13.662-5.656s-10.201,2.163-13.692,5.656c-3.494,3.492-5.657,8.346-5.657,13.693    c0,3.584,0.958,6.953,2.627,9.797c1.7,2.875,4.172,5.317,7.079,6.986c1.298,0.588,2.225,1.916,2.225,3.462v33.104h14.806v-33.104    c0.03-1.329,0.743-2.627,1.979-3.308c2.967-1.669,5.471-4.08,7.201-6.954l0.124-0.187c1.669-2.874,2.659-6.213,2.659-9.797    C283.324,270.404,281.129,265.551,277.637,262.059z M263.975,248.798c7.417,0,14.157,3.029,19.04,7.913    c4.884,4.853,7.881,11.591,7.881,19.041c0,4.944-1.359,9.643-3.708,13.631l-0.154,0.247c-2.041,3.369-4.792,6.274-8.068,8.47    v34.803c0,2.072-1.7,3.803-3.803,3.803h-22.408c-2.102,0-3.802-1.73-3.802-3.803V298.1c-3.337-2.258-6.15-5.225-8.221-8.717    c-2.35-4.02-3.709-8.687-3.709-13.631c0-7.45,3.029-14.188,7.882-19.072C249.787,251.827,256.525,248.798,263.975,248.798z     M171.245,137.832h21.452v-21.328c0-19.564,8.037-37.4,20.957-50.32c12.92-12.92,30.724-20.957,50.289-20.957    c19.598,0,37.433,8.037,50.353,20.957c12.889,12.92,20.926,30.756,20.926,50.32v21.328h21.482V118.73    c0-25.501-10.447-48.684-27.263-65.498c-16.784-16.814-39.966-27.23-65.466-27.23s-48.682,10.416-65.498,27.23    c-16.814,16.814-27.232,39.997-27.232,65.498V137.832z M356.703,145.436H171.245v19.257h185.458V145.436z M364.275,164.692h23.832    v-19.257h-23.832V164.692z M138.173,164.692h25.469v-19.257h-25.469V164.692z M173.996,478.426c1.206,0,2.288-0.494,3.061-1.268    c0.772-0.772,1.267-1.886,1.267-3.06c0-1.205-0.463-2.287-1.235-3.029c-0.774-0.773-1.825-1.236-2.967-1.267l0,0h-0.063h-0.062    h-0.03h-0.063l0,0c-1.143,0.03-2.194,0.493-2.936,1.235l-0.154,0.155c-0.681,0.772-1.112,1.792-1.112,2.905    c0,1.205,0.495,2.287,1.267,3.06l0.155,0.154C171.864,477.992,172.884,478.426,173.996,478.426z M198.847,443.25    c1.176,0,2.257-0.494,3.031-1.267c0.804-0.773,1.267-1.854,1.267-3.061c0-1.175-0.463-2.257-1.267-3.028l-0.125-0.155    c-0.741-0.681-1.701-1.082-2.781-1.112h-0.125h-0.154c-1.142,0.03-2.164,0.494-2.904,1.236c-0.774,0.772-1.269,1.885-1.269,3.06    c0,1.206,0.495,2.287,1.269,3.061C196.561,442.756,197.642,443.25,198.847,443.25z M263.665,474.964    c1.174,0,2.257-0.495,3.029-1.267l0.154-0.124c0.711-0.773,1.112-1.793,1.112-2.906c0-1.205-0.463-2.287-1.235-3.06    c-0.773-0.742-1.825-1.236-2.938-1.268h-0.029h-0.032h-0.062h-0.061h-0.032h-0.031c-1.143,0.031-2.193,0.495-2.936,1.236    c-0.772,0.804-1.268,1.886-1.268,3.091c0,1.175,0.495,2.257,1.268,3.03C261.377,474.501,262.46,474.964,263.665,474.964z     M350.861,477.158c0.773,0.773,1.854,1.268,3.061,1.268c1.111,0,2.133-0.434,2.905-1.113l0.122-0.154    c0.774-0.772,1.27-1.854,1.27-3.06c0-1.113-0.434-2.133-1.114-2.905l-0.155-0.155c-0.74-0.742-1.791-1.205-2.936-1.235l0,0h-0.061    h-0.031h-0.063h-0.031h-0.029c-1.145,0.03-2.195,0.493-2.938,1.235c-0.772,0.773-1.268,1.855-1.268,3.061    S350.089,476.386,350.861,477.158z M326.042,441.983c0.772,0.772,1.853,1.267,3.028,1.267c1.205,0,2.287-0.494,3.061-1.267    c0.804-0.773,1.267-1.854,1.267-3.061c0-1.175-0.495-2.287-1.237-3.028c-0.771-0.773-1.791-1.237-2.936-1.268h-0.154h-0.125    c-1.142,0.03-2.163,0.525-2.903,1.268c-0.804,0.771-1.269,1.854-1.269,3.028c0,1.145,0.401,2.164,1.112,2.906L326.042,441.983z     M329.07,450.854c-3.275,0-6.243-1.329-8.406-3.493l-0.248-0.277c-2.01-2.134-3.246-5.008-3.246-8.161    c0-3.276,1.328-6.243,3.494-8.407c1.266-1.298,2.842-2.287,4.604-2.875v-5.068l-6.521-6.522l-14.127,14.126v20.987    c0,2.103-1.729,3.802-3.801,3.802c-2.102,0-3.802-1.699-3.802-3.802v-22.564c0-1.05,0.433-2.008,1.112-2.688l15.238-15.238    l-13.692-13.693h-32.209v62.376c1.762,0.618,3.34,1.607,4.606,2.874c2.164,2.164,3.492,5.163,3.492,8.438    c0,3.122-1.204,5.997-3.244,8.129l-0.248,0.278c-2.132,2.165-5.131,3.493-8.407,3.493c-3.275,0-6.243-1.328-8.406-3.493    c-2.166-2.163-3.494-5.161-3.494-8.407c0-3.275,1.328-6.243,3.494-8.406c1.267-1.299,2.843-2.288,4.604-2.906v-57.832    l-10.323,10.354v34.65c0,2.102-1.701,3.802-3.803,3.802s-3.801-1.7-3.801-3.802v-36.227c0-1.144,0.493-2.164,1.297-2.844    l10.479-10.479h-25.47l-13.692,13.693l15.238,15.238c0.71,0.681,1.112,1.639,1.112,2.688v22.564c0,2.103-1.7,3.802-3.771,3.802    c-2.102,0-3.802-1.699-3.802-3.802v-20.987l-14.156-14.126l-6.522,6.522v5.068c1.639,0.557,3.092,1.453,4.327,2.628l0.279,0.247    c2.164,2.164,3.492,5.131,3.492,8.407c0,3.308-1.328,6.275-3.492,8.438c-2.134,2.164-5.131,3.493-8.409,3.493    c-3.306,0-6.273-1.329-8.437-3.493c-2.134-2.163-3.494-5.162-3.494-8.438c0-3.245,1.36-6.243,3.494-8.407    c1.297-1.268,2.874-2.256,4.636-2.875v-6.645c0-1.021,0.402-1.979,1.113-2.689l21.359-21.328h-20.648l-19.07,19.041v46.797    c1.762,0.587,3.337,1.576,4.604,2.874c2.195,2.164,3.523,5.132,3.523,8.408s-1.329,6.274-3.492,8.407    c-2.164,2.163-5.162,3.493-8.438,3.493c-3.122,0-5.996-1.206-8.13-3.215l-0.277-0.248c-2.164-2.163-3.494-5.161-3.494-8.438    c0-3.122,1.237-5.997,3.215-8.13l0.279-0.278c1.298-1.298,2.874-2.287,4.606-2.874v-48.374c0-1.02,0.432-1.978,1.113-2.689    l14.805-14.774H141.17c-6.459,0-12.364-2.781-16.877-7.355c-3.771-3.803-6.552-8.871-7.881-14.59h29.58h0.093h0.093l0,0h0.093    v-0.031h0.091l0,0h0.125l0,0l0.093-0.031l0,0h0.093l0,0l0.091-0.03l0,0h0.093l0,0l0.093-0.032l0,0l0.093-0.03l0,0l0.062-0.03l0,0    l0.093-0.031l0,0l0.093-0.03l0,0l0.093-0.032l0,0l0.093-0.03l0,0l0.062-0.03l0,0l0.093-0.031v-0.031l0.093-0.031l0,0l0.062-0.03    l0,0l0.093-0.03v-0.031l0.091-0.031l0,0l0.063-0.062l0,0l0.093-0.03l0,0l0.062-0.063l0,0l0.061-0.062l0,0l0.093-0.032v-0.03    l0.062-0.03l0,0l0.061-0.063l0,0l0.093-0.062l0,0l0.062-0.062l0,0l0.063-0.063l0,0l0.062-0.062l0,0l0.062-0.093l0,0l0.061-0.062    l0,0l0.063-0.062l0,0l0.062-0.063l0,0l0.03-0.093l0,0l0.063-0.062l0,0l0.062-0.063v-0.03l0.03-0.062l0,0l0.063-0.063v-0.03    l0.062-0.063l0,0l0.03-0.093l0,0l0.032-0.062l0,0l0.062-0.093l0,0l0.031-0.092l0,0l0.032-0.063l0,0l0.03-0.094l0,0l0.032-0.092    l0,0l0.03-0.093l0,0l0.031-0.062v-0.031l0.032-0.062v-0.03l0.03-0.063v-0.031l0.032-0.062v-0.031v-0.062v-0.031l0.03-0.062l0,0    v-0.093v-0.031l0.032-0.062v-0.03v-0.094l0,0l0.031-0.093l0,0v-0.092l0,0v-0.093l0,0v-0.094l0,0v-28.652v-0.093v-0.124v-28.529    v-0.123v-0.094v-28.561v-0.093v-0.093v-28.561v-0.092v-0.094v-28.652c0-2.103-1.7-3.802-3.802-3.802h-30.354l-0.03-17.805h199.769    c2.102,0,3.802-1.7,3.802-3.802s-1.7-3.802-3.802-3.802H115.608l-0.031-25.964h18.7h0.093h257.54h0.093h20.308v189.848H191.677    c-2.103,0-3.803,1.699-3.803,3.801c0,2.103,1.7,3.802,3.803,3.802h220.57c-0.463,7.326-3.275,13.909-7.571,18.763    c-4.638,5.223-10.975,8.469-17.929,8.469h-44.974l14.838,14.774c0.68,0.712,1.112,1.67,1.112,2.689v48.374    c1.762,0.587,3.338,1.576,4.604,2.874l0.279,0.278c1.978,2.133,3.215,5.008,3.215,8.13c0,3.276-1.33,6.274-3.494,8.438    l-0.277,0.248c-2.134,2.009-5.008,3.215-8.129,3.215c-3.309,0-6.275-1.33-8.439-3.463c-2.132-2.163-3.492-5.161-3.492-8.438    s1.36-6.244,3.492-8.408c1.299-1.298,2.875-2.287,4.637-2.874V416.02l-19.071-19.041h-20.616l21.327,21.328    c0.71,0.711,1.112,1.669,1.112,2.689v6.645c1.762,0.588,3.34,1.577,4.606,2.875c2.195,2.164,3.523,5.162,3.523,8.407    c0,3.276-1.328,6.275-3.492,8.438C335.346,449.525,332.378,450.854,329.07,450.854z M142.189,338.684V317.51h-42.5v21.174H142.189    z" style="fill-rule:evenodd;clip-rule:evenodd;"/></g></g><g id="Layer_1"/></svg>